<svg width="165" height="196" viewBox="0 0 165 196" fill="none" xmlns="http://www.w3.org/2000/svg">
<path d="M35.4095 66.6676L94.803 125.936C95.2477 126.382 95.7765 126.737 96.3589 126.979C96.9413 127.221 97.566 127.345 98.1968 127.345C98.8277 127.345 99.4523 127.221 100.035 126.979C100.617 126.737 101.146 126.382 101.591 125.936L157.585 70.0591C158.034 69.6153 158.389 69.0874 158.632 68.5057C158.875 67.924 159 67.3002 159 66.67C159 66.0399 158.875 65.416 158.632 64.8344C158.389 64.2527 158.034 63.7247 157.585 63.2809L101.591 7.40916C101.146 6.96259 100.617 6.60819 100.035 6.36635C99.4523 6.1245 98.8277 6 98.1968 6C97.566 6 96.9413 6.1245 96.3589 6.36635C95.7765 6.60819 95.2477 6.96259 94.803 7.40916L7.41213 94.6159C6.96462 95.0596 6.60947 95.5872 6.36712 96.1684C6.12477 96.7497 6 97.373 6 98.0025C6 98.632 6.12477 99.2553 6.36712 99.8365C6.60947 100.418 6.96462 100.945 7.41213 101.389L94.803 188.591C95.2477 189.037 95.7765 189.392 96.3589 189.634C96.9413 189.876 97.566 190 98.1968 190C98.8277 190 99.4523 189.876 100.035 189.634C100.617 189.392 101.146 189.037 101.591 188.591L157.585 132.714C158.033 132.27 158.388 131.743 158.63 131.162C158.873 130.58 158.997 129.957 158.997 129.327C158.997 128.698 158.873 128.075 158.63 127.493C158.388 126.912 158.033 126.385 157.585 125.941L101.591 70.0591C101.146 69.6126 100.617 69.2582 100.035 69.0163C99.4523 68.7745 98.8277 68.65 98.1968 68.65C97.566 68.65 96.9413 68.7745 96.3589 69.0163C95.7765 69.2582 95.2477 69.6126 94.803 70.0591L35.4045 129.327" stroke="#6E1478" stroke-width="12" stroke-linecap="round" stroke-linejoin="round"/>
</svg>
