<svg width="165" height="171" viewBox="0 0 165 171" fill="none" xmlns="http://www.w3.org/2000/svg">
<path d="M141.487 29.4865L23.5125 29.4865C25.85 27.1279 28.325 24.9081 30.9375 22.827C33.55 20.7459 36.2313 18.8036 38.9813 17C38.9813 17 65.5049 -4.34907e-06 82.5 -3.60619e-06C99.4951 -2.86331e-06 126.019 17 126.019 17C128.769 18.8036 131.45 20.7459 134.062 22.827C136.675 24.9081 139.15 27.1279 141.487 29.4865ZM161.287 62.7838L3.71251 62.7838C4.67501 59.8703 5.73924 57.0261 6.90524 54.2513C8.07124 51.4766 9.41326 48.7712 10.9313 46.1351L154.069 46.1351C155.581 48.7712 156.923 51.4766 158.095 54.2514C159.266 57.0261 160.33 59.8703 161.287 62.7838ZM6.80625 121.054L158.194 121.054C151.731 135.76 141.762 147.761 128.287 157.057C114.812 166.352 99.55 171 82.5 171C65.45 171 50.1875 166.352 36.7125 157.057C23.2375 147.761 13.2688 135.76 6.80625 121.054ZM-3.83597e-06 87.7568C-3.77533e-06 86.3694 0.0329953 84.982 0.0989954 83.5946C0.164995 82.2072 0.269487 80.8198 0.412487 79.4324L164.587 79.4324C164.725 80.8198 164.827 82.2072 164.893 83.5946C164.959 84.982 164.994 86.3694 165 87.7568C165 90.5315 164.862 93.3063 164.587 96.0811C164.312 98.8559 163.9 101.631 163.35 104.405L1.65 104.405C1.1 101.631 0.687487 98.8559 0.412487 96.0811C0.137487 93.3063 -3.95726e-06 90.5315 -3.83597e-06 87.7568Z" fill="#262628"/>
</svg>
