<svg width="175" height="208" viewBox="0 0 175 208" fill="none" xmlns="http://www.w3.org/2000/svg">
<path d="M37.3317 70.6241L100.607 133.758C101.081 134.233 101.644 134.611 102.265 134.869C102.885 135.126 103.551 135.259 104.223 135.259C104.895 135.259 105.56 135.126 106.181 134.869C106.801 134.611 107.365 134.233 107.838 133.758L167.493 74.2369C167.97 73.7642 168.349 73.2018 168.608 72.5822C168.867 71.9626 169 71.298 169 70.6268C169 69.9556 168.867 69.291 168.608 68.6714C168.349 68.0518 167.97 67.4894 167.493 67.0166L107.838 7.50106C107.365 7.02537 106.801 6.64785 106.181 6.39024C105.56 6.13262 104.895 6 104.223 6C103.551 6 102.885 6.13262 102.265 6.39024C101.644 6.64785 101.081 7.02537 100.607 7.50106L7.50443 100.395C7.02767 100.868 6.64931 101.43 6.39111 102.049C6.13292 102.668 6.00001 103.332 6.00001 104.003C6.00001 104.673 6.13292 105.337 6.39111 105.956C6.64931 106.575 7.02767 107.137 7.50443 107.61L100.607 200.499C101.081 200.975 101.644 201.352 102.265 201.61C102.885 201.867 103.551 202 104.223 202C104.895 202 105.56 201.867 106.181 201.61C106.801 201.352 107.365 200.975 107.838 200.499L167.493 140.978C167.97 140.505 168.348 139.943 168.606 139.324C168.864 138.705 168.997 138.041 168.997 137.371C168.997 136.7 168.864 136.036 168.606 135.417C168.348 134.798 167.97 134.236 167.493 133.763L107.838 74.2369C107.365 73.7612 106.801 73.3837 106.181 73.1261C105.56 72.8685 104.895 72.7358 104.223 72.7358C103.551 72.7358 102.885 72.8685 102.265 73.1261C101.644 73.3837 101.081 73.7612 100.607 74.2369L37.3264 137.371" stroke="white" stroke-width="12" stroke-linecap="round" stroke-linejoin="round"/>
</svg>
