<svg width="115" height="73" viewBox="0 0 115 73" fill="none" xmlns="http://www.w3.org/2000/svg">
    <g clip-path="url(#clip0_541_3537)">
        <path d="M9.17 28.1503C8.94958 28.1503 8.89208 28.0358 9.00708 27.8736L10.1667 26.3849C10.2423 26.297 10.3365 26.2266 10.4425 26.1788C10.5484 26.1309 10.6637 26.1069 10.78 26.1082H30.56C30.7804 26.1082 30.8379 26.2704 30.7229 26.4422L29.7646 27.8736C29.6987 27.963 29.6156 28.0386 29.5202 28.096C29.4248 28.1533 29.319 28.1912 29.2087 28.2076L9.17 28.1503Z" fill="#00ACD7"/>
        <path d="M0.794995 33.227C0.574579 33.227 0.517079 33.1125 0.632079 32.9503L1.79166 31.4903C1.86735 31.4023 1.9615 31.3319 2.06747 31.2841C2.17344 31.2363 2.28866 31.2122 2.405 31.2136H27.6762C27.7193 31.2083 27.763 31.214 27.8033 31.2299C27.8436 31.2459 27.8792 31.2717 27.9069 31.3049C27.9345 31.3382 27.9534 31.3778 27.9616 31.4202C27.9699 31.4626 27.9673 31.5064 27.9542 31.5476L27.5133 32.874C27.4795 32.9769 27.412 33.0657 27.3218 33.1262C27.2315 33.1867 27.1235 33.2155 27.015 33.208L0.794995 33.227Z" fill="#00ACD7"/>
        <path d="M14.213 38.3036C13.9925 38.3036 13.935 38.1413 14.05 37.9696L14.8263 36.5859C14.8832 36.4993 14.9579 36.4255 15.0454 36.3696C15.133 36.3137 15.2314 36.2769 15.3342 36.2615H26.4605C26.6809 36.2615 26.7959 36.4237 26.7959 36.6432L26.6809 37.9696C26.6742 38.0686 26.6316 38.1618 26.5611 38.232C26.4906 38.3022 26.397 38.3446 26.2975 38.3513L14.213 38.3036Z" fill="#00ACD7"/>
        <path d="M71.7491 27.1579C68.2608 28.0454 65.8745 28.7038 62.4341 29.5913C61.6004 29.8107 61.5429 29.868 60.8241 29.0378C60.1275 28.1491 59.2358 27.431 58.2174 26.9385C54.7291 25.2304 51.3462 25.7266 48.1837 27.7687C46.3864 28.8568 44.9143 30.404 43.92 32.2498C42.9258 34.0955 42.4457 36.1726 42.5295 38.2654C42.5067 40.3686 43.2539 42.4081 44.6313 44.0027C46.0088 45.5973 47.9222 46.6379 50.0141 46.93C51.7647 47.1816 53.551 46.9771 55.1986 46.3366C56.8462 45.6961 58.299 44.6413 59.4154 43.2752C59.9137 42.6645 60.3737 42.006 60.9104 41.2331H50.2441C49.0845 41.2331 48.8066 40.5174 49.1899 39.5727C49.9087 37.8646 51.2408 34.9923 52.017 33.5609C52.1356 33.2935 52.3305 33.0667 52.5776 32.9089C52.8248 32.7511 53.1131 32.6692 53.4066 32.6735H73.5795C73.4645 34.1621 73.4645 35.6507 73.2441 37.1489C72.671 41.0798 71.1084 44.8024 68.7016 47.9701C66.8535 50.5283 64.4971 52.681 61.7786 54.2947C59.0602 55.9083 56.0377 56.9484 52.8987 57.3503C50.2947 57.7713 47.6322 57.6655 45.0702 57.0392C42.5082 56.4129 40.0992 55.279 37.987 53.7051C36.0173 52.2681 34.3732 50.4346 33.1613 48.3237C31.9495 46.2129 31.197 43.8718 30.9529 41.4526C30.6144 38.5796 30.8572 35.6683 31.667 32.8903C32.4768 30.1124 33.8372 27.524 35.6679 25.2781C39.4232 20.2334 44.9808 16.8174 51.1929 15.7356C56.4062 14.7813 61.3895 15.4016 65.8841 18.4361C68.7564 20.3385 70.9949 23.0491 72.3145 26.2228C72.6308 26.719 72.4104 26.9862 71.7491 27.1579Z" fill="#00ACD7"/>
        <path d="M90.084 57.6748C85.1434 57.7055 80.3532 55.9836 76.5715 52.8177C73.3427 50.1098 71.2137 46.3245 70.5819 42.1683C70.1067 39.2311 70.2614 36.2269 71.0361 33.3536C71.8108 30.4802 73.1878 27.8028 75.0765 25.4975C79.1207 20.2015 83.9986 17.4437 90.6015 16.2795C96.2461 15.268 101.584 15.8406 106.376 19.085C108.505 20.441 110.31 22.2464 111.661 24.3736C113.012 26.5008 113.878 28.8978 114.196 31.3948C114.73 34.7945 114.429 38.2724 113.319 41.5312C112.209 44.79 110.324 47.7327 107.823 50.1076C104.209 53.7477 99.5705 56.21 94.5211 57.169C93.0357 57.4553 91.5407 57.5126 90.084 57.6748ZM103.28 35.374C103.261 34.7639 103.207 34.1553 103.117 33.5514C102.913 32.303 102.449 31.1109 101.756 30.0511C101.062 28.9913 100.154 28.0872 99.09 27.3966C98.0258 26.706 96.8286 26.2441 95.5749 26.0403C94.3212 25.8365 93.0386 25.8954 91.809 26.2132C89.41 26.6569 87.2014 27.8117 85.4726 29.5263C83.7438 31.2409 82.5754 33.4355 82.1203 35.8225C81.6169 37.879 81.8497 40.0459 82.7787 41.9498C83.7076 43.8537 85.2744 45.3753 87.209 46.2524C88.639 46.8955 90.199 47.2 91.767 47.142C93.3349 47.0841 94.868 46.6653 96.2461 45.9185C98.2781 44.9857 100.011 43.5116 101.255 41.6591C102.498 39.8066 103.202 37.648 103.29 35.4217L103.28 35.374Z" fill="#00ACD7"/>
    </g>
    <defs>
        <clipPath id="clip0_541_3537">
            <rect width="115" height="73" fill="white"/>
        </clipPath>
    </defs>
</svg>
